<svg width="313" height="319" viewBox="0 0 313 319" fill="none" xmlns="http://www.w3.org/2000/svg">
<rect x="3" y="8" width="310" height="310" fill="#FF9233"/>
<rect x="3" y="8" width="310" height="310" fill="#FF9233"/>
<path d="M42.36 42.64C36.76 51.44 33.96 64.64 33.96 82.24C33.96 99.84 36.76 113.04 42.36 121.84C47.64 130.32 55.48 134.56 65.88 134.56C76.12 134.56 83.88 130.32 89.16 121.84C94.92 113.2 97.8 100 97.8 82.24C97.8 64.48 94.92 51.28 89.16 42.64C83.88 34.16 76.12 29.92 65.88 29.92C55.48 29.92 47.64 34.16 42.36 42.64ZM14.52 137.68C5.4 123.76 0.84 105.28 0.84 82.24C0.84 59.2 5.4 40.72 14.52 26.8C26.2 9.35999 43.32 0.639992 65.88 0.639992C88.44 0.639992 105.48 9.35999 117 26.8C126.28 40.88 130.92 59.36 130.92 82.24C130.92 105.12 126.28 123.6 117 137.68C105.48 155.12 88.44 163.84 65.88 163.84C43.32 163.84 26.2 155.12 14.52 137.68ZM215.948 160H183.068V55.84H145.628V33.52C156.828 33.36 166.188 30.56 173.708 25.12C181.228 19.52 185.788 12.56 187.388 4.23999H215.948V160Z" fill="#FCFCFC"/>
<path d="M17.03 283.398H26.046C31.73 283.398 36.3687 281.699 39.962 278.302C43.6207 274.905 45.45 269.907 45.45 263.308C45.45 256.644 43.6207 251.613 39.962 248.216C36.3687 244.819 31.73 243.12 26.046 243.12H17.03V283.398ZM26.634 298H1.546V228.518H26.732C37.2507 228.518 45.6787 231.654 52.016 237.926C58.4187 244.198 61.62 252.659 61.62 263.308C61.62 273.957 58.4187 282.418 52.016 288.69C45.6787 294.897 37.218 298 26.634 298ZM83.4219 267.816H102.924C102.793 265.595 101.911 263.667 100.278 262.034C98.7099 260.401 96.3253 259.584 93.1239 259.584C90.2493 259.584 87.9626 260.433 86.2639 262.132C84.5653 263.831 83.6179 265.725 83.4219 267.816ZM104.002 280.458L116.448 283.986C115.207 288.494 112.626 292.218 108.706 295.158C104.786 298.033 99.8859 299.47 94.0059 299.47C86.9499 299.47 80.9393 297.118 75.9739 292.414C71.0739 287.71 68.6239 281.405 68.6239 273.5C68.6239 265.921 71.0086 259.747 75.7779 254.978C80.6126 250.209 86.3293 247.824 92.9279 247.824C100.507 247.824 106.452 250.045 110.764 254.488C115.141 258.865 117.33 264.974 117.33 272.814C117.33 275.297 117.232 276.832 117.036 277.42H83.1279C83.2586 280.099 84.4019 282.353 86.5579 284.182C88.7139 285.946 91.2619 286.828 94.2019 286.828C99.2326 286.828 102.499 284.705 104.002 280.458ZM122.876 284.182L135.518 281.928C135.649 283.757 136.335 285.325 137.576 286.632C138.883 287.873 140.745 288.494 143.162 288.494C144.991 288.494 146.396 288.102 147.376 287.318C148.356 286.469 148.846 285.456 148.846 284.28C148.846 282.32 147.245 280.981 144.044 280.262L138.458 278.988C133.493 277.943 129.834 276.113 127.482 273.5C125.13 270.821 123.954 267.653 123.954 263.994C123.954 259.486 125.718 255.664 129.246 252.528C132.839 249.392 137.315 247.824 142.672 247.824C149.009 247.824 153.746 249.359 156.882 252.43C160.083 255.435 161.847 258.735 162.174 262.328L149.826 264.582C149.63 262.818 148.944 261.381 147.768 260.27C146.657 259.159 145.024 258.604 142.868 258.604C141.431 258.604 140.189 258.996 139.144 259.78C138.099 260.564 137.576 261.577 137.576 262.818C137.576 264.778 138.85 265.987 141.398 266.444L147.866 267.718C152.766 268.698 156.49 270.56 159.038 273.304C161.586 276.048 162.86 279.282 162.86 283.006C162.86 287.514 161.161 291.401 157.764 294.668C154.367 297.869 149.597 299.47 143.456 299.47C139.863 299.47 136.661 298.947 133.852 297.902C131.108 296.857 128.985 295.517 127.482 293.884C126.045 292.185 124.934 290.519 124.15 288.886C123.431 287.253 123.007 285.685 122.876 284.182ZM187.441 298H172.545V249.294H187.441V298ZM173.819 240.572C172.12 238.873 171.271 236.815 171.271 234.398C171.271 231.981 172.12 229.923 173.819 228.224C175.517 226.525 177.543 225.676 179.895 225.676C182.312 225.676 184.37 226.525 186.069 228.224C187.833 229.923 188.715 231.981 188.715 234.398C188.715 236.815 187.833 238.873 186.069 240.572C184.37 242.271 182.312 243.12 179.895 243.12C177.543 243.12 175.517 242.271 173.819 240.572ZM197.06 300.744L210.192 297.02C210.714 299.437 211.89 301.397 213.72 302.9C215.614 304.403 217.934 305.154 220.678 305.154C228.714 305.154 232.732 301.005 232.732 292.708V290.454C230.314 294.113 225.97 295.942 219.698 295.942C213.23 295.942 207.84 293.688 203.528 289.18C199.216 284.672 197.06 279.021 197.06 272.226C197.06 265.693 199.183 260.107 203.43 255.468C207.742 250.764 213.164 248.412 219.698 248.412C223.291 248.412 226.231 249.033 228.518 250.274C230.804 251.515 232.372 252.92 233.222 254.488V249.294H247.432V291.924C247.432 299.503 245.243 305.742 240.866 310.642C236.488 315.607 229.988 318.09 221.364 318.09C214.7 318.09 209.146 316.359 204.704 312.896C200.326 309.499 197.778 305.448 197.06 300.744ZM214.896 280.066C216.856 282.026 219.371 283.006 222.442 283.006C225.512 283.006 227.995 282.026 229.89 280.066C231.85 278.106 232.83 275.493 232.83 272.226C232.83 269.025 231.817 266.444 229.792 264.484C227.766 262.459 225.316 261.446 222.442 261.446C219.567 261.446 217.084 262.459 214.994 264.484C212.968 266.444 211.956 269.025 211.956 272.226C211.956 275.493 212.936 278.106 214.896 280.066ZM274.913 270.07V298H260.017V249.294H274.423V254.88C275.665 252.724 277.559 251.058 280.107 249.882C282.721 248.641 285.367 248.02 288.045 248.02C293.86 248.02 298.27 249.849 301.275 253.508C304.281 257.101 305.783 261.74 305.783 267.424V298H290.887V269.972C290.887 267.424 290.201 265.399 288.829 263.896C287.523 262.328 285.563 261.544 282.949 261.544C280.532 261.544 278.572 262.361 277.069 263.994C275.632 265.562 274.913 267.587 274.913 270.07Z" fill="white"/>
</svg>
