<svg width="312" height="314" viewBox="0 0 312 314" fill="none" xmlns="http://www.w3.org/2000/svg">
<rect x="1" width="310" height="310" fill="#00AEEF"/>
<rect x="1" width="310" height="310" fill="#00AEEF"/>
<path d="M40.22 197.53C34.8533 205.963 32.17 218.613 32.17 235.48C32.17 252.347 34.8533 264.997 40.22 273.43C45.28 281.557 52.7933 285.62 62.76 285.62C72.5733 285.62 80.01 281.557 85.07 273.43C90.59 265.15 93.35 252.5 93.35 235.48C93.35 218.46 90.59 205.81 85.07 197.53C80.01 189.403 72.5733 185.34 62.76 185.34C52.7933 185.34 45.28 189.403 40.22 197.53ZM13.54 288.61C4.8 275.27 0.43 257.56 0.43 235.48C0.43 213.4 4.8 195.69 13.54 182.35C24.7333 165.637 41.14 157.28 62.76 157.28C84.38 157.28 100.71 165.637 111.75 182.35C120.643 195.843 125.09 213.553 125.09 235.48C125.09 257.407 120.643 275.117 111.75 288.61C100.71 305.323 84.38 313.68 62.76 313.68C41.14 313.68 24.7333 305.323 13.54 288.61ZM173.642 218.46L143.512 217.54C142.745 214.167 142.362 210.717 142.362 207.19C142.362 193.39 147.268 181.66 157.082 172C166.895 162.187 180.158 157.28 196.872 157.28C213.125 157.28 226.158 161.957 235.972 171.31C245.785 180.51 250.692 191.857 250.692 205.35C250.692 224.363 241.032 239.773 221.712 251.58L192.962 269.06C186.215 273.353 181.922 277.877 180.082 282.63H251.612V310H141.212C141.365 296.047 144.048 283.857 149.262 273.43C154.628 263.003 163.675 253.957 176.402 246.29L201.012 231.57C212.818 224.517 218.722 215.93 218.722 205.81C218.722 200.137 216.728 195.307 212.742 191.32C208.908 187.333 203.388 185.34 196.182 185.34C188.515 185.34 182.612 187.64 178.472 192.24C174.485 196.84 172.492 202.82 172.492 210.18C172.492 212.94 172.875 215.7 173.642 218.46Z" fill="#FCFCFC"/>
<path d="M295.034 302.494V298.078C295.034 295.294 294.202 293.022 292.538 291.262C290.874 289.47 288.426 288.574 285.194 288.574C281.93 288.574 279.466 289.47 277.802 291.262C276.138 293.022 275.306 295.294 275.306 298.078V302.494H295.034ZM302.186 297.79V310.078H268.154V297.742C268.154 292.59 269.69 288.462 272.762 285.358C275.834 282.222 279.978 280.654 285.194 280.654C290.41 280.654 294.554 282.222 297.626 285.358C300.666 288.462 302.186 292.606 302.186 297.79ZM287.402 269.976V260.424C286.314 260.488 285.37 260.92 284.57 261.72C283.77 262.488 283.37 263.656 283.37 265.224C283.37 266.632 283.786 267.752 284.618 268.584C285.45 269.416 286.378 269.88 287.402 269.976ZM293.594 259.896L295.322 253.8C297.53 254.408 299.354 255.672 300.794 257.592C302.202 259.512 302.906 261.912 302.906 264.792C302.906 268.248 301.754 271.192 299.45 273.624C297.146 276.024 294.058 277.224 290.186 277.224C286.474 277.224 283.45 276.056 281.114 273.72C278.778 271.352 277.61 268.552 277.61 265.32C277.61 261.608 278.698 258.696 280.874 256.584C283.018 254.44 286.01 253.368 289.85 253.368C291.066 253.368 291.818 253.416 292.106 253.512V270.12C293.418 270.056 294.522 269.496 295.418 268.44C296.282 267.384 296.714 266.136 296.714 264.696C296.714 262.232 295.674 260.632 293.594 259.896ZM278.33 225.68L302.186 234.752V242.096L278.33 251.888V243.968L293.162 238.448L278.33 233.36V225.68ZM287.402 217.148V207.596C286.314 207.66 285.37 208.092 284.57 208.892C283.77 209.66 283.37 210.828 283.37 212.396C283.37 213.804 283.786 214.924 284.618 215.756C285.45 216.588 286.378 217.052 287.402 217.148ZM293.594 207.068L295.322 200.972C297.53 201.58 299.354 202.844 300.794 204.764C302.202 206.684 302.906 209.084 302.906 211.964C302.906 215.42 301.754 218.364 299.45 220.796C297.146 223.196 294.058 224.396 290.186 224.396C286.474 224.396 283.45 223.228 281.114 220.892C278.778 218.524 277.61 215.724 277.61 212.492C277.61 208.78 278.698 205.868 280.874 203.756C283.018 201.612 286.01 200.54 289.85 200.54C291.066 200.54 291.818 200.588 292.106 200.684V217.292C293.418 217.228 294.522 216.668 295.418 215.612C296.282 214.556 296.714 213.308 296.714 211.868C296.714 209.404 295.674 207.804 293.594 207.068ZM302.186 188.559V195.855H267.434V188.559H302.186ZM296.186 171.177C296.186 169.673 295.674 168.409 294.65 167.385C293.626 166.329 292.154 165.801 290.234 165.801C288.314 165.801 286.858 166.329 285.866 167.385C284.842 168.409 284.33 169.673 284.33 171.177C284.33 172.649 284.842 173.913 285.866 174.969C286.89 176.025 288.346 176.553 290.234 176.553C292.122 176.553 293.594 176.025 294.65 174.969C295.674 173.913 296.186 172.649 296.186 171.177ZM277.61 171.177C277.61 167.561 278.794 164.553 281.162 162.153C283.53 159.721 286.554 158.505 290.234 158.505C293.914 158.505 296.954 159.721 299.354 162.153C301.722 164.553 302.906 167.561 302.906 171.177C302.906 174.761 301.706 177.769 299.306 180.201C296.906 182.633 293.882 183.849 290.234 183.849C286.586 183.849 283.578 182.633 281.21 180.201C278.81 177.769 277.61 174.761 277.61 171.177ZM311.306 146.512V153.808H278.33V146.752H280.778C279.946 146.208 279.242 145.312 278.666 144.064C278.058 142.784 277.754 141.344 277.754 139.744C277.754 136.352 278.922 133.664 281.258 131.68C283.562 129.664 286.538 128.656 290.186 128.656C293.834 128.656 296.842 129.728 299.21 131.872C301.546 133.984 302.714 136.704 302.714 140.032C302.714 143.04 301.914 145.2 300.314 146.512H311.306ZM294.65 137.392C293.594 136.336 292.122 135.808 290.234 135.808C288.346 135.808 286.89 136.336 285.866 137.392C284.842 138.416 284.33 139.696 284.33 141.232C284.33 142.736 284.842 144.016 285.866 145.072C286.89 146.096 288.346 146.608 290.234 146.608C292.122 146.608 293.594 146.096 294.65 145.072C295.674 144.016 296.186 142.736 296.186 141.232C296.186 139.696 295.674 138.416 294.65 137.392ZM302.186 116.653V123.949H278.33V116.989H281.066C280.042 116.413 279.21 115.469 278.57 114.157C277.93 112.813 277.61 111.469 277.61 110.125C277.61 106.701 278.858 104.349 281.354 103.069C278.858 101.341 277.61 98.877 277.61 95.677C277.61 93.181 278.378 91.085 279.914 89.389C281.418 87.693 283.69 86.845 286.73 86.845H302.186V93.901H288.362C287.178 93.901 286.218 94.221 285.482 94.861C284.714 95.501 284.33 96.445 284.33 97.693C284.33 98.941 284.73 99.917 285.53 100.621C286.33 101.325 287.29 101.677 288.41 101.677H302.186V108.877H288.362C287.178 108.877 286.218 109.213 285.482 109.885C284.714 110.525 284.33 111.469 284.33 112.717C284.33 113.933 284.73 114.893 285.53 115.597C286.33 116.301 287.306 116.653 288.458 116.653H302.186ZM287.402 75.1634V65.6114C286.314 65.6754 285.37 66.1074 284.57 66.9074C283.77 67.6754 283.37 68.8434 283.37 70.4114C283.37 71.8194 283.786 72.9394 284.618 73.7714C285.45 74.6034 286.378 75.0674 287.402 75.1634ZM293.594 65.0834L295.322 58.9874C297.53 59.5954 299.354 60.8594 300.794 62.7794C302.202 64.6994 302.906 67.0994 302.906 69.9794C302.906 73.4354 301.754 76.3794 299.45 78.8114C297.146 81.2114 294.058 82.4114 290.186 82.4114C286.474 82.4114 283.45 81.2434 281.114 78.9074C278.778 76.5394 277.61 73.7394 277.61 70.5074C277.61 66.7954 278.698 63.8834 280.874 61.7714C283.018 59.6274 286.01 58.5554 289.85 58.5554C291.066 58.5554 291.818 58.6034 292.106 58.6994L292.106 75.3074C293.418 75.2434 294.522 74.6834 295.418 73.6274C296.282 72.5714 296.714 71.3234 296.714 69.8834C296.714 67.4194 295.674 65.8194 293.594 65.0834ZM288.506 46.5749H302.186V53.8709H278.33V46.8149H281.066C280.01 46.2069 279.194 45.2789 278.618 44.0309C278.01 42.7509 277.706 41.4549 277.706 40.1429C277.706 37.2949 278.602 35.1349 280.394 33.6629C282.154 32.1909 284.426 31.4549 287.21 31.4549H302.186L302.186 38.7509H288.458C287.21 38.7509 286.218 39.0869 285.482 39.7589C284.714 40.3989 284.33 41.3589 284.33 42.6389C284.33 43.8229 284.73 44.7829 285.53 45.5189C286.298 46.2229 287.29 46.5749 288.506 46.5749ZM271.37 16.588H278.33V11.932H284.714V16.588H293.642C295.306 16.588 296.138 15.708 296.138 13.948C296.138 13.372 296.058 12.732 295.898 12.028H301.946C302.394 12.924 302.618 14.188 302.618 15.82C302.618 18.284 301.93 20.236 300.554 21.676C299.178 23.084 297.306 23.788 294.938 23.788H284.714V28.012H278.33V26.812C278.33 25.596 277.978 24.684 277.274 24.076C276.538 23.436 275.594 23.116 274.442 23.116H271.37V16.588Z" fill="white"/>
</svg>
