<svg width="316" height="317" viewBox="0 0 316 317" fill="none" xmlns="http://www.w3.org/2000/svg">
<rect y="5" width="310" height="310" fill="#FF9233"/>
<rect y="5" width="310" height="310" fill="#FF9233"/>
<path d="M102.22 40.53C96.8533 48.9633 94.17 61.6133 94.17 78.48C94.17 95.3467 96.8533 107.997 102.22 116.43C107.28 124.557 114.793 128.62 124.76 128.62C134.573 128.62 142.01 124.557 147.07 116.43C152.59 108.15 155.35 95.5 155.35 78.48C155.35 61.46 152.59 48.81 147.07 40.53C142.01 32.4033 134.573 28.34 124.76 28.34C114.793 28.34 107.28 32.4033 102.22 40.53ZM75.54 131.61C66.8 118.27 62.43 100.56 62.43 78.48C62.43 56.4 66.8 38.69 75.54 25.35C86.7333 8.63666 103.14 0.279992 124.76 0.279992C146.38 0.279992 162.71 8.63666 173.75 25.35C182.643 38.8433 187.09 56.5533 187.09 78.48C187.09 100.407 182.643 118.117 173.75 131.61C162.71 148.323 146.38 156.68 124.76 156.68C103.14 156.68 86.7333 148.323 75.54 131.61ZM245.296 86.76L231.266 64.68L270.366 31.1H205.046V3.72999H310.616V29.26L271.976 61.46C283.783 61.92 293.903 66.3667 302.336 74.8C310.923 83.08 315.216 93.8133 315.216 107C315.216 120.493 310.003 132.147 299.576 141.96C289.15 151.62 275.273 156.45 257.946 156.45C241.233 156.45 227.663 151.85 217.236 142.65C206.81 133.297 201.136 122.027 200.216 108.84L230.806 102.86C231.113 110.527 233.72 116.813 238.626 121.72C243.686 126.627 250.126 129.08 257.946 129.08C265.613 129.08 271.746 126.933 276.346 122.64C280.946 118.347 283.246 112.98 283.246 106.54C283.246 99.64 280.946 94.2733 276.346 90.44C271.9 86.4533 266.073 84.46 258.866 84.46C254.113 84.46 249.59 85.2267 245.296 86.76Z" fill="#FCFCFC"/>
<path d="M61.476 244.824H40.868V298H28.08V244.824H7.472V232.772H61.476V244.824ZM69.7021 270.216H89.9421C89.8194 267.701 88.8994 265.585 87.1821 263.868C85.5261 262.151 83.0728 261.292 79.8221 261.292C76.8781 261.292 74.4861 262.212 72.6461 264.052C70.8061 265.892 69.8248 267.947 69.7021 270.216ZM91.1381 281.992L101.35 285.028C100.123 289.199 97.7008 292.633 94.0821 295.332C90.5248 298.031 86.0781 299.38 80.7421 299.38C74.2408 299.38 68.7208 297.203 64.1821 292.848C59.6434 288.432 57.3741 282.544 57.3741 275.184C57.3741 268.192 59.5821 262.488 63.9981 258.072C68.4141 253.595 73.6274 251.356 79.6381 251.356C86.6301 251.356 92.0888 253.441 96.0141 257.612C100.001 261.783 101.994 267.517 101.994 274.816C101.994 275.307 101.963 275.859 101.902 276.472C101.902 277.085 101.902 277.576 101.902 277.944L101.81 278.588H69.4261C69.5488 281.532 70.7141 283.985 72.9221 285.948C75.1301 287.911 77.7674 288.892 80.8341 288.892C86.0474 288.892 89.4821 286.592 91.1381 281.992ZM107.766 285.396L118.254 283.096C118.376 285.059 119.143 286.715 120.554 288.064C122.026 289.352 124.019 289.996 126.534 289.996C128.435 289.996 129.907 289.567 130.95 288.708C131.992 287.849 132.514 286.776 132.514 285.488C132.514 283.219 130.888 281.747 127.638 281.072L121.658 279.692C117.426 278.772 114.236 277.116 112.09 274.724C110.004 272.332 108.962 269.48 108.962 266.168C108.962 262.059 110.556 258.563 113.746 255.68C116.996 252.797 121.044 251.356 125.89 251.356C128.956 251.356 131.655 251.816 133.986 252.736C136.316 253.595 138.126 254.729 139.414 256.14C140.702 257.489 141.683 258.869 142.358 260.28C143.032 261.691 143.462 263.071 143.646 264.42L133.434 266.72C133.188 265.125 132.452 263.715 131.226 262.488C130.06 261.261 128.312 260.648 125.982 260.648C124.387 260.648 123.007 261.077 121.842 261.936C120.738 262.795 120.186 263.868 120.186 265.156C120.186 267.364 121.566 268.713 124.326 269.204L130.766 270.584C135.12 271.504 138.432 273.191 140.702 275.644C143.032 278.097 144.198 281.041 144.198 284.476C144.198 288.524 142.664 292.02 139.598 294.964C136.531 297.908 132.207 299.38 126.626 299.38C123.436 299.38 120.584 298.92 118.07 298C115.555 297.019 113.592 295.792 112.182 294.32C110.832 292.787 109.79 291.284 109.054 289.812C108.379 288.279 107.95 286.807 107.766 285.396ZM169.124 239.212V252.736H178.232V263.592H169.124V282.544C169.124 284.445 169.553 285.795 170.412 286.592C171.271 287.389 172.62 287.788 174.46 287.788C176.116 287.788 177.373 287.665 178.232 287.42V297.54C176.453 298.276 174.153 298.644 171.332 298.644C166.916 298.644 163.42 297.417 160.844 294.964C158.268 292.449 156.98 289.015 156.98 284.66V263.592H148.792V252.736H151.092C153.361 252.736 155.079 252.092 156.244 250.804C157.471 249.455 158.084 247.707 158.084 245.56V239.212H169.124ZM200.862 298H188.626V252.736H200.862V298ZM187.154 237.924C187.154 235.839 187.89 234.06 189.362 232.588C190.834 231.055 192.612 230.288 194.698 230.288C196.783 230.288 198.562 231.024 200.034 232.496C201.506 233.968 202.242 235.777 202.242 237.924C202.242 239.948 201.506 241.696 200.034 243.168C198.562 244.64 196.783 245.376 194.698 245.376C192.612 245.376 190.834 244.64 189.362 243.168C187.89 241.696 187.154 239.948 187.154 237.924ZM226.198 271.964V298H213.962V252.736H225.83V258.348C227.118 256.14 228.958 254.453 231.35 253.288C233.742 252.123 236.256 251.54 238.894 251.54C244.23 251.54 248.278 253.227 251.038 256.6C253.859 259.912 255.27 264.205 255.27 269.48V298H243.034V271.596C243.034 268.897 242.328 266.72 240.918 265.064C239.568 263.408 237.483 262.58 234.662 262.58C232.086 262.58 230.031 263.469 228.498 265.248C226.964 267.027 226.198 269.265 226.198 271.964ZM264.468 300.484L275.508 297.54C275.938 300.055 277.103 302.109 279.004 303.704C280.906 305.299 283.267 306.096 286.088 306.096C294.123 306.096 298.14 301.895 298.14 293.492V290.18C297.098 291.836 295.503 293.216 293.356 294.32C291.21 295.424 288.603 295.976 285.536 295.976C279.526 295.976 274.496 293.891 270.448 289.72C266.462 285.549 264.468 280.305 264.468 273.988C264.468 267.855 266.462 262.641 270.448 258.348C274.435 254.055 279.464 251.908 285.536 251.908C288.848 251.908 291.608 252.521 293.816 253.748C296.024 254.913 297.558 256.355 298.416 258.072V252.736H310.192V293.124C310.192 299.932 308.23 305.575 304.304 310.052C300.379 314.591 294.43 316.86 286.456 316.86C280.507 316.86 275.508 315.265 271.46 312.076C267.474 308.887 265.143 305.023 264.468 300.484ZM287.652 285.488C290.78 285.488 293.326 284.445 295.288 282.36C297.312 280.275 298.324 277.484 298.324 273.988C298.324 270.553 297.282 267.793 295.196 265.708C293.172 263.623 290.658 262.58 287.652 262.58C284.524 262.58 281.918 263.623 279.832 265.708C277.808 267.793 276.796 270.553 276.796 273.988C276.796 277.484 277.808 280.275 279.832 282.36C281.856 284.445 284.463 285.488 287.652 285.488Z" fill="white"/>
</svg>
