<svg width="312" height="319" viewBox="0 0 312 319" fill="none" xmlns="http://www.w3.org/2000/svg">
<rect y="5" width="310" height="310" fill="#00AEEF"/>
<rect y="5" width="310" height="310" fill="#00AEEF"/>
<path d="M83.22 202.53C77.8533 210.963 75.17 223.613 75.17 240.48C75.17 257.347 77.8533 269.997 83.22 278.43C88.28 286.557 95.7933 290.62 105.76 290.62C115.573 290.62 123.01 286.557 128.07 278.43C133.59 270.15 136.35 257.5 136.35 240.48C136.35 223.46 133.59 210.81 128.07 202.53C123.01 194.403 115.573 190.34 105.76 190.34C95.7933 190.34 88.28 194.403 83.22 202.53ZM56.54 293.61C47.8 280.27 43.43 262.56 43.43 240.48C43.43 218.4 47.8 200.69 56.54 187.35C67.7333 170.637 84.14 162.28 105.76 162.28C127.38 162.28 143.71 170.637 154.75 187.35C163.643 200.843 168.09 218.553 168.09 240.48C168.09 262.407 163.643 280.117 154.75 293.61C143.71 310.323 127.38 318.68 105.76 318.68C84.14 318.68 67.7333 310.323 56.54 293.61ZM184.885 283.03V249.91L247.675 165.73H286.775V255.89H311.385V283.03H286.775V315H255.495V283.03H184.885ZM255.495 255.89V198.85L212.945 255.89H255.495Z" fill="#FCFCFC"/>
<path d="M94.6 118H21.96V4.55999H44.04V96.88H94.6V118ZM131.171 118H109.891V39.28H131.171V118ZM107.331 13.52C107.331 9.89333 108.611 6.79999 111.171 4.24C113.731 1.57333 116.825 0.23999 120.451 0.23999C124.078 0.23999 127.171 1.51999 129.731 4.08C132.291 6.64 133.571 9.78666 133.571 13.52C133.571 17.04 132.291 20.08 129.731 22.64C127.171 25.2 124.078 26.48 120.451 26.48C116.825 26.48 113.731 25.2 111.171 22.64C108.611 20.08 107.331 17.04 107.331 13.52ZM228.194 39.28L197.634 118H176.354L144.194 39.28H167.554L187.074 92.08L205.794 39.28H228.194ZM254.318 69.68H289.518C289.304 65.3067 287.704 61.6267 284.718 58.64C281.838 55.6533 277.571 54.16 271.918 54.16C266.798 54.16 262.638 55.76 259.438 58.96C256.238 62.16 254.531 65.7333 254.318 69.68ZM291.598 90.16L309.358 95.44C307.224 102.693 303.011 108.667 296.718 113.36C290.531 118.053 282.798 120.4 273.518 120.4C262.211 120.4 252.611 116.613 244.718 109.04C236.824 101.36 232.878 91.12 232.878 78.32C232.878 66.16 236.718 56.24 244.398 48.56C252.078 40.7733 261.144 36.88 271.598 36.88C283.758 36.88 293.251 40.5067 300.078 47.76C307.011 55.0133 310.478 64.9867 310.478 77.68C310.478 78.5333 310.424 79.4933 310.318 80.56C310.318 81.6267 310.318 82.48 310.318 83.12L310.158 84.24H253.838C254.051 89.36 256.078 93.6267 259.918 97.04C263.758 100.453 268.344 102.16 273.678 102.16C282.744 102.16 288.718 98.16 291.598 90.16Z" fill="white"/>
</svg>
